<svg xmlns="http://www.w3.org/2000/svg" viewBox="0 0 841.9 595.3">
  <g fill="#61DAFB">
    <path d="M666.3 296.5c0 26.2-21.3 47.5-47.5 47.5s-47.5-21.3-47.5-47.5 21.3-47.5 47.5-47.5 47.5 21.3 47.5 47.5z"/>
    <path d="M520.5 78.1c-30.3-30.3-83.3-23.7-126.1 16.6-42.8-40.3-95.8-46.9-126.1-16.6s-23.7 83.3 16.6 126.1C163.2 245.3 156.6 298.3 187 328.6c30.3 30.3 83.3 23.7 126.1-16.6 42.8 40.3 95.8 46.9 126.1 16.6 30.3-30.3 23.7-83.3-16.6-126.1 40.3-42.8 46.9-95.8 16.6-126.1z"/>
  </g>
</svg>
<svg xmlns="http://www.w3.org/2000/svg" viewBox="0 0 841.9 595.3">
  <g fill="#61DAFB">
    <path d="M666.3 296.5c0 26.2-21.3 47.5-47.5 47.5s-47.5-21.3-47.5-47.5 21.3-47.5 47.5-47.5 47.5 21.3 47.5 47.5z"/>
    <path d="M520.5 78.1c-30.3-30.3-83.3-23.7-126.1 16.6-42.8-40.3-95.8-46.9-126.1-16.6s-23.7 83.3 16.6 126.1C163.2 245.3 156.6 298.3 187 328.6c30.3 30.3 83.3 23.7 126.1-16.6 42.8 40.3 95.8 46.9 126.1 16.6 30.3-30.3 23.7-83.3-16.6-126.1 40.3-42.8 46.9-95.8 16.6-126.1z"/>
  </g>
</svg>
